<svg width="24" height="24" viewBox="0 0 24 24" fill="none" xmlns="http://www.w3.org/2000/svg">
<path fill-rule="evenodd" clip-rule="evenodd" d="M15.4813 7.17501C15.623 7.47691 15.9059 7.68831 16.2355 7.73867L22.0761 8.63081C22.8807 8.75372 23.2093 9.73512 22.6408 10.3177L18.3524 14.7129C18.1308 14.9401 18.0301 15.2589 18.0812 15.5722L19.0846 21.7253C19.219 22.5492 18.3444 23.1653 17.6138 22.7614L12.4838 19.9255C12.1827 19.7591 11.8173 19.7591 11.5162 19.9255L6.38537 22.7615C5.65478 23.1653 4.78023 22.5491 4.91467 21.7252L5.91872 15.5722C5.96984 15.259 5.86919 14.94 5.64752 14.7128L1.35917 10.3177C0.790739 9.73512 1.1193 8.75372 1.92392 8.63081L7.76447 7.73867C8.09415 7.68831 8.37703 7.47691 8.51873 7.17501L11.0948 1.68645C11.4547 0.91962 12.5453 0.91962 12.9053 1.68645L15.4813 7.17501Z" fill="#F4A316"/>
</svg>
